<svg height="128" width="128" xmlns="http://www.w3.org/2000/svg" xmlns:xlink="http://www.w3.org/1999/xlink"><linearGradient id="a" gradientTransform="translate(.096)" gradientUnits="userSpaceOnUse" x1="32" x2="32" y1="-11" y2="45"><stop offset="0" stop-color="#c0bfbc"/><stop offset="1" stop-color="#deddda"/></linearGradient><linearGradient id="b" gradientUnits="userSpaceOnUse" x1="16" x2="112" y1="106" y2="106"><stop offset="0" stop-color="#9a9996"/><stop offset=".036" stop-color="#f6f5f4"/><stop offset=".071" stop-color="#9a9996"/><stop offset=".929" stop-color="#9a9996"/><stop offset=".964" stop-color="#f6f5f4"/><stop offset="1" stop-color="#c0bfbc"/></linearGradient><linearGradient id="c" gradientTransform="matrix(.5 0 0 .5 0 103.5)" gradientUnits="userSpaceOnUse" x1="72" x2="176" xlink:href="#a" y1="-139" y2="-139"/><linearGradient id="d" gradientTransform="matrix(.5 0 0 .5 0 103.5)" gradientUnits="userSpaceOnUse" x1="32" x2="224" xlink:href="#a" y1="-43" y2="-43"/><rect fill="url(#b)" height="20" ry="6" width="96" x="16" y="96"/><rect fill="url(#c)" height="52" ry="8" width="52" x="36" y="8"/><rect fill="url(#d)" height="52" ry="8" width="96" x="16" y="56"/><circle cx="26" cy="90" fill="#e01b24" r="2"/><circle cx="34" cy="90" fill="#33d17a" r="2"/><circle cx="42" cy="90" fill="#f6d32d" r="2"/><path d="M36 52h52v4H36zm24 12h48v12H60zm0 20h48v12H60z" fill="#9a9996"/><path d="M60 64h48v4H60zm0 20h48v4H60z" fill="#77767b"/><path d="M88 64h20v12H88zM60 84h20v12H60z" fill="#0bbaf4"/><path d="M88 72h20v4H88zM60 92h20v4H60z" fill="#0aa8dc"/><path d="M44 36h36v12H44zM20 64h28v20H20zm24-52h16v16H44zm20 0h16v16H64z" fill="#241f31"/><path d="M48 40h28v4H48zM24 68h20v12H24zm24-52h8v8h-8zm20 0h8v8h-8z" fill="#33d17a"/><path d="M30.883 68l-2.918 6.813-1.936-3.874L24 74.49v2.02l1.97-3.45 2.065 4.127 2.791-6.51 1.684 8.42h.98l.713-3.572.66 1.319 2.344-2.344H44v-1h-7.207l-1.656 1.656-1.34-2.683L33 76.45 31.309 68z" fill="#26a269"/><path d="M61 44l2-4H48v4zM31 80l6-12H24v12zm19-56l4-8h-6v8zm20 0l4-8h-6v8z" fill="#fff" opacity=".3"/></svg>